<svg width="40" height="40" viewBox="0 0 40 40" fill="none" xmlns="http://www.w3.org/2000/svg">
<path d="M38.3333 15C34.6667 15 31.2267 15.9934 28.2683 17.7234C27.7583 12.49 25.2683 7.35671 21.1783 3.26671L20 2.08838L18.8217 3.26671C14.7317 7.35671 12.24 12.4917 11.7317 17.7234C8.77333 15.9934 5.335 15 1.66667 15H0V16.6667C0 27.1334 8.08167 35.7467 18.3333 36.5967L20 36.6667L21.6667 36.5967C31.9183 35.7467 40 27.1334 40 16.6667V15H38.3333ZM20 6.88671C23.375 10.7817 25.1383 15.3917 25.0283 20.08C22.89 21.9884 21.1633 24.35 20 27.01C18.8367 24.3484 17.11 21.9884 14.9717 20.08C14.8633 15.3917 16.625 10.7817 20 6.88671ZM3.425 18.425C11.2133 19.2467 17.42 25.4534 18.2417 33.2417C10.4533 32.42 4.24667 26.2134 3.425 18.425ZM21.7583 33.2417C22.58 25.4534 28.7867 19.2467 36.575 18.425C35.7533 26.2134 29.5467 32.42 21.7583 33.2417Z" fill="#0F3047"/>
</svg>
