<svg width="18" height="18" viewBox="0 0 18 18" fill="none" xmlns="http://www.w3.org/2000/svg">
<g clip-path="url(#clip0_1899_366)">
<path d="M6.375 18C4.6725 18 3.072 17.337 1.86675 16.1333C0.663 14.9288 0 13.3275 0 11.625C0 6.43425 4.4835 3.54225 8.43825 0.99L9.75 0.14325V3.23475C13.3073 1.37475 16.485 0.48525 16.632 0.4455L17.9063 0.09375L17.5545 1.368C17.514 1.51425 16.6253 4.69275 14.7645 8.25H17.856L17.0093 9.56175C14.4578 13.5165 11.565 18 6.37425 18H6.375ZM8.25 2.8995C4.7805 5.169 1.5 7.635 1.5 11.625C1.5 12.927 2.007 14.151 2.92725 15.0728C3.849 15.9938 5.07225 16.5 6.375 16.5C10.365 16.5 12.831 13.2195 15.1005 9.75H12.207L12.849 8.62725C14.2388 6.201 15.1755 3.77625 15.6758 2.325C14.2238 2.82525 11.7998 3.762 9.3735 5.15175L8.25075 5.79375V2.8995H8.25ZM6.75 14.25C5.0955 14.25 3.75 12.9045 3.75 11.25C3.75 9.5955 5.0955 8.25 6.75 8.25C8.4045 8.25 9.75 9.5955 9.75 11.25C9.75 12.9045 8.4045 14.25 6.75 14.25ZM6.75 9.75C5.92275 9.75 5.25 10.4228 5.25 11.25C5.25 12.0773 5.92275 12.75 6.75 12.75C7.57725 12.75 8.25 12.0773 8.25 11.25C8.25 10.4228 7.57725 9.75 6.75 9.75Z" fill="white"/>
</g>
<defs>
<clipPath id="clip0_1899_366">
<rect width="18" height="18" fill="white"/>
</clipPath>
</defs>
</svg>
