<svg width="18" height="18" viewBox="0 0 18 18" fill="none" xmlns="http://www.w3.org/2000/svg">
<g clip-path="url(#clip0_1924_368)">
<path d="M13.5006 6.3752C13.5006 6.87248 13.303 7.3494 12.9514 7.70103C12.5998 8.05266 12.1229 8.2502 11.6256 8.2502C11.1283 8.2502 10.6514 8.05266 10.2997 7.70103C9.94811 7.3494 9.75057 6.87248 9.75057 6.3752C9.75057 5.87792 9.94811 5.40101 10.2997 5.04938C10.6514 4.69775 11.1283 4.5002 11.6256 4.5002C12.1229 4.5002 12.5998 4.69775 12.9514 5.04938C13.303 5.40101 13.5006 5.87792 13.5006 6.3752ZM13.4961 11.5247C13.4549 12.7164 13.1574 13.8851 12.6238 14.9515C12.1322 15.8811 11.3941 16.6575 10.4903 17.1953C9.58657 17.7331 8.55216 18.0116 7.50057 18.0002H6.75057V13.8752C6.74721 13.18 6.46958 12.5143 5.97802 12.0227C5.48646 11.5312 4.82073 11.2536 4.12557 11.2502H0.000562518V10.5002C-0.0107912 9.44861 0.267708 8.4142 0.805509 7.51046C1.34331 6.60672 2.11963 5.86856 3.04931 5.37695C4.11564 4.8434 5.28442 4.5459 6.47607 4.5047C7.5687 3.09338 8.97189 1.95285 10.5767 1.17165C12.1815 0.39045 13.9448 -0.0104047 15.7296 0.000205257C16.0266 -0.0016714 16.321 0.0550924 16.596 0.167242C16.871 0.279392 17.1212 0.444721 17.3322 0.653752C17.5431 0.862782 17.7108 1.1114 17.8255 1.38536C17.9402 1.65931 17.9997 1.95321 18.0006 2.2502C18.0133 4.03836 17.6135 5.80537 16.8322 7.4139C16.051 9.02242 14.9094 10.4291 13.4961 11.5247ZM1.56356 9.7502H3.26007C3.81705 8.50969 4.47134 7.31521 5.21682 6.17795C4.69903 6.29842 4.19729 6.47967 3.72207 6.71795C3.15052 7.01976 2.65759 7.45122 2.28276 7.97778C1.90794 8.50433 1.66163 9.11135 1.56356 9.7502ZM11.8228 12.784C10.6856 13.5294 9.49108 14.1837 8.25057 14.7407V16.4372C8.88943 16.3391 9.49644 16.0928 10.023 15.718C10.5496 15.3432 10.981 14.8502 11.2828 14.2787C11.5211 13.8035 11.7024 13.3017 11.8228 12.784ZM16.5006 2.2292C16.4951 2.03395 16.4137 1.84854 16.2736 1.7124C16.1336 1.57626 15.9459 1.50013 15.7506 1.5002C11.8806 1.61045 9.26307 3.0932 6.73707 6.6167C6.03218 7.63161 5.41232 8.703 4.88382 9.81995C5.70276 9.97248 6.45633 10.3694 7.04536 10.9584C7.6344 11.5474 8.0313 12.301 8.18382 13.12C9.30077 12.5915 10.3722 11.9716 11.3871 11.2667C14.9076 8.7377 16.3903 6.1202 16.5006 2.2292ZM4.59207 13.4095C5.01114 13.8328 5.24622 14.4045 5.24622 15.0002C5.24622 15.5959 5.01114 16.1676 4.59207 16.591C3.91182 17.2705 1.87556 17.6897 1.03106 17.839L-0.0234375 18.0242L0.161813 16.9697C0.311813 16.1252 0.730313 14.089 1.40981 13.4087C1.83862 12.9997 2.4085 12.7716 3.00109 12.7717C3.59368 12.7719 4.16345 13.0002 4.59207 13.4095ZM3.75057 15.0002C3.75083 14.9017 3.73155 14.8041 3.69383 14.7131C3.6561 14.622 3.6007 14.5394 3.53081 14.47C3.39017 14.3293 3.19944 14.2504 3.00056 14.2504C2.80169 14.2504 2.61096 14.3293 2.47031 14.47C2.18437 14.9861 1.98354 15.5451 1.87556 16.1252C2.45592 16.0168 3.01506 15.8157 3.53157 15.5297C3.60122 15.4603 3.65644 15.3777 3.69403 15.2869C3.73162 15.196 3.75083 15.0985 3.75057 15.0002Z" fill="white"/>
</g>
<defs>
<clipPath id="clip0_1924_368">
<rect width="18" height="18" fill="white"/>
</clipPath>
</defs>
</svg>
