<svg width="1360" height="92" viewBox="0 0 1360 92" fill="none" xmlns="http://www.w3.org/2000/svg">
<path d="M11.9525 89.978H0V1.8956H70.96V89.978H59.0075V3.91758H11.9525V89.978Z" fill="white"/>
<path d="M81.6621 46C81.6621 14.4066 105.315 0.126372 131.233 0C157.277 0.126372 180.931 14.4066 180.931 46C180.931 78.2253 157.277 91.8736 131.233 92C105.315 91.8736 81.6621 78.2253 81.6621 46ZM131.233 2.02197C112.487 2.02197 94.2437 13.1429 94.2437 46C94.2437 78.9835 112.487 90.1044 131.233 90.1044C150.106 90.1044 168.349 78.9835 168.349 46C168.349 13.1429 150.106 2.02197 131.233 2.02197Z" fill="white"/>
<path d="M181.661 89.978L211.857 1.8956H224.816L258.912 89.978H246.078L213.115 4.92857L183.926 89.978H181.661Z" fill="white"/>
<path d="M268.955 89.978V1.8956H332.115V3.91758H280.908V43.0934H320.791V45.1154H280.908V87.8297H332.115V89.978H268.955Z" fill="white"/>
<path d="M370.776 3.91758H334.542V1.8956H418.838V3.91758H382.729V89.978H370.776V3.91758Z" fill="white"/>
<path d="M425.119 89.978V1.8956H488.278V3.91758H437.071V43.0934H476.955V45.1154H437.071V87.8297H488.278V89.978H425.119Z" fill="white"/>
<path d="M494.48 89.978L524.675 1.8956H537.634L571.73 89.978H558.897L525.933 4.92857L496.744 89.978H494.48Z" fill="white"/>
<path d="M593.726 89.978H581.774V1.8956H593.726V87.8297C604.547 87.8297 638.265 83.6593 640.781 34.6264V1.8956H652.734V89.978H640.781V50.4231C637.762 63.5659 631.848 73.5494 622.79 80.3736C611.466 88.8407 598.885 89.978 593.726 89.978Z" fill="white"/>
<path d="M715.699 1.8956H727.651V43.2198H775.964V1.8956H787.917V89.978H775.964V45.2418H727.651V89.978H715.699V1.8956Z" fill="white"/>
<path d="M797.96 89.978L828.156 1.8956H841.115L875.211 89.978H862.378L848.412 53.9615H812.555L800.225 89.978H797.96ZM829.414 4.67582L813.31 51.8132H847.658L829.414 4.67582Z" fill="white"/>
<path d="M935.63 89.978V1.8956H947.708L979.288 43.5989L1010.87 1.8956H1022.95V89.978H1011.12V5.18132L979.288 47.1374L947.583 5.18132V89.978H935.63Z" fill="white"/>
<path d="M1033 89.978L1063.2 1.8956H1076.16L1110.26 89.978H1097.42L1083.46 53.9615H1047.6L1035.27 89.978H1033ZM1064.46 4.67582L1048.35 51.8132H1082.7L1064.46 4.67582Z" fill="white"/>
<path d="M1132.25 89.978H1120.3V1.8956H1132.25V31.2143C1134.77 16.1758 1139.67 0 1157.92 0C1176.03 0 1191.89 7.83516 1191.89 28.9396C1191.89 54.9725 1174.02 59.522 1153.39 59.522H1132.25V89.978ZM1136.78 20.3462C1131.12 39.8077 1132.25 57.6264 1132.25 57.6264H1153.39C1165.59 57.6264 1179.56 55.6044 1179.56 28.9396C1179.56 7.96153 1171.63 2.02197 1157.92 2.02197C1150.24 2.02197 1141.69 3.15934 1136.78 20.3462Z" fill="white"/>
<path d="M1245.55 92C1215.86 92 1199.5 72.2857 1199.5 46C1199.5 19.3352 1215.86 0 1245.55 0C1269.21 0 1280.91 12.2582 1282.54 22.2418L1280.4 22.4945C1277.89 7.2033 1258.39 2.02197 1245.55 2.02197C1224.16 2.02197 1212.34 19.2088 1212.34 46C1212.34 74.3077 1226.68 89.5989 1245.55 89.5989C1254.61 89.5989 1272.22 89.3462 1286.69 75.1923L1288.2 76.5824C1273.11 91.4945 1254.99 92 1245.55 92Z" fill="white"/>
<path d="M1310.05 29.1923L1296.97 27.4231C1296.97 7.96153 1309.04 0 1328.04 0C1346.92 0 1360 6.82417 1360 28.5604C1360 52.8242 1332.7 50.5494 1328.29 58.1319C1327.41 59.6483 1327.04 62.0494 1326.78 65.5879H1324.77C1324.9 61.4176 1325.4 58.8901 1326.53 56.9945C1331.19 49.2857 1347.04 53.2033 1347.04 28.5604C1347.04 9.98352 1341.25 2.02197 1328.04 2.02197C1310.55 2.02197 1310.05 15.2912 1310.05 29.1923ZM1317.47 83.7857C1317.47 79.2363 1321.12 75.4451 1325.65 75.4451C1330.18 75.4451 1333.96 79.2363 1333.96 83.7857C1333.96 88.3352 1330.18 92 1325.65 92C1321.12 92 1317.47 88.3352 1317.47 83.7857Z" fill="white"/>
</svg>
