<svg width="3401" height="1046" viewBox="0 0 3401 1046" fill="none" xmlns="http://www.w3.org/2000/svg">
<path d="M1302.86 677.69C1282.21 673.883 1279.14 670.809 1275.35 650.183C1271.54 670.828 1268.47 673.902 1247.84 677.69C1268.49 681.498 1271.56 684.572 1275.35 705.198C1279.16 684.553 1282.23 681.478 1302.86 677.69Z" fill="white"/>
<path d="M785.225 142.54C772.087 140.117 770.13 138.161 767.72 125.035C765.297 138.173 763.34 140.129 750.215 142.54C763.353 144.963 765.309 146.919 767.72 160.045C770.143 146.907 772.099 144.951 785.225 142.54Z" fill="white"/>
<path d="M232.566 900.251C217.551 897.482 215.315 895.246 212.56 880.246C209.791 895.261 207.555 897.496 192.555 900.251C207.57 903.021 209.805 905.256 212.56 920.257C215.33 905.242 217.565 903.006 232.566 900.251Z" fill="white"/>
<path d="M2793.29 823.409C2776.4 820.293 2773.89 817.778 2770.79 800.902C2767.67 817.794 2765.16 820.309 2748.28 823.409C2765.17 826.524 2767.69 829.039 2770.79 845.915C2773.9 829.023 2776.42 826.508 2793.29 823.409Z" fill="white"/>
</svg>
